<svg width="50" height="50" viewBox="0 0 50 50" fill="none" xmlns="http://www.w3.org/2000/svg">
<path d="M0 46.1536V3.84643C0 2.82629 0.405248 1.84794 1.12659 1.12659C1.84794 0.405248 2.82629 0 3.84643 0L46.1536 0C47.1737 0 48.1521 0.405248 48.8734 1.12659C49.5948 1.84794 50 2.82629 50 3.84643V46.1536C50 47.1737 49.5948 48.1521 48.8734 48.8734C48.1521 49.5948 47.1737 50 46.1536 50H34.6179V31.7679H37.3464C37.9687 31.7679 38.5656 31.5206 39.0056 31.0806C39.4456 30.6406 39.6929 30.0437 39.6929 29.4214V26.4643C39.6938 26.1559 39.6338 25.8503 39.5162 25.5652C39.3986 25.2801 39.2258 25.0211 39.0077 24.803C38.7896 24.5849 38.5306 24.4121 38.2455 24.2945C37.9604 24.177 37.6548 24.1169 37.3464 24.1179H34.7679V20.5C34.7679 17.2679 36.2321 17.2679 37.6929 17.2679H39.575C39.8846 17.2796 40.1931 17.2241 40.4792 17.1051C40.7653 16.9861 41.0222 16.8064 41.2321 16.5786C41.4552 16.3647 41.6319 16.1072 41.7511 15.8221C41.8703 15.537 41.9295 15.2304 41.925 14.9214V12.0786C41.9443 11.4457 41.7119 10.8309 41.2788 10.369C40.8457 9.90713 40.2471 9.63573 39.6143 9.61429H35.1929C33.9021 9.5654 32.6162 9.79736 31.4239 10.2941C30.2317 10.7909 29.1615 11.5407 28.2873 12.4916C27.4132 13.4424 26.7559 14.5718 26.361 15.8016C25.9661 17.0314 25.8429 18.3322 26 19.6143V24.1143H23.5357C23.2246 24.1095 22.9156 24.1667 22.6268 24.2825C22.338 24.3983 22.0751 24.5704 21.8534 24.7888C21.6317 25.0071 21.4557 25.2674 21.3355 25.5544C21.2154 25.8415 21.1535 26.1495 21.1536 26.4607V29.425C21.154 29.7362 21.2163 30.0441 21.3369 30.331C21.4575 30.6179 21.6339 30.8779 21.8559 31.0959C22.0779 31.3139 22.3411 31.4856 22.6301 31.601C22.9191 31.7163 23.2282 31.7731 23.5393 31.7679H26V50H3.84643C2.82629 50 1.84794 49.5948 1.12659 48.8734C0.405248 48.1521 0 47.1737 0 46.1536Z" fill="black"/>
</svg>
