<svg width="50" height="57" viewBox="0 0 50 57" fill="none" xmlns="http://www.w3.org/2000/svg">
<path d="M7.14286 3.5625C3.20312 3.5625 0 6.75762 0 10.6875V46.3125C0 50.2424 3.20312 53.4375 7.14286 53.4375H42.8571C46.7969 53.4375 50 50.2424 50 46.3125V10.6875C50 6.75762 46.7969 3.5625 42.8571 3.5625H7.14286ZM40.3013 12.9141L28.7165 26.1176L42.3438 44.0859H31.6741L23.3259 33.1869L13.7612 44.0859H8.45982L20.8482 29.9584L7.77902 12.9141H18.7165L26.2723 22.8779L35 12.9141H40.3013ZM36.0826 40.9242L17.1205 15.9088H13.9621L33.1362 40.9242H36.0714H36.0826Z" fill="black"/>
</svg>
