<svg width="50" height="50" viewBox="0 0 50 50" fill="none" xmlns="http://www.w3.org/2000/svg">
<path d="M9.4 0C6.90697 0 4.51604 0.990354 2.7532 2.7532C0.990354 4.51604 0 6.90697 0 9.4V40.6C0 43.093 0.990354 45.484 2.7532 47.2468C4.51604 49.0096 6.90697 50 9.4 50H40.6C41.8344 50 43.0568 49.7569 44.1972 49.2845C45.3377 48.8121 46.3739 48.1197 47.2468 47.2468C48.1197 46.3739 48.8121 45.3377 49.2845 44.1972C49.7569 43.0568 50 41.8344 50 40.6V9.4C50 8.16557 49.7569 6.94324 49.2845 5.80278C48.8121 4.66232 48.1197 3.62607 47.2468 2.7532C46.3739 1.88033 45.3377 1.18793 44.1972 0.715532C43.0568 0.243138 41.8344 0 40.6 0H9.4ZM14.0375 11.7325H35.9625C36.9855 11.7328 37.9984 11.9346 38.9434 12.3264C39.8884 12.7182 40.747 13.2923 41.4701 14.0159C42.1933 14.7395 42.7668 15.5985 43.158 16.5437C43.5492 17.489 43.7503 18.502 43.75 19.525V30.48C43.75 32.5456 42.9296 34.5266 41.4692 35.9875C40.0089 37.4483 38.0281 38.2693 35.9625 38.27H14.0375C13.0143 38.2697 12.0012 38.0678 11.056 37.6758C10.1108 37.2839 9.25215 36.7096 8.52899 35.9857C7.80582 35.2618 7.23234 34.4026 6.8413 33.4571C6.45027 32.5115 6.24934 31.4982 6.25 30.475V19.525C6.25 17.4594 7.07039 15.4784 8.53075 14.0175C9.99112 12.5567 11.9719 11.7332 14.0375 11.7325ZM20.2375 19.5575C20.1329 19.5632 20.0344 19.6085 19.962 19.6842C19.8895 19.7599 19.8486 19.8603 19.8475 19.965V30.0525C19.8466 30.1228 19.8637 30.1921 19.8973 30.2538C19.9309 30.3155 19.9798 30.3676 20.0392 30.405C20.0987 30.4424 20.1668 30.4639 20.237 30.4674C20.3072 30.4709 20.3771 30.4563 20.44 30.425L30.6925 25.5325C30.7614 25.4991 30.8196 25.4473 30.8607 25.3827C30.9018 25.3181 30.9241 25.2434 30.9252 25.1668C30.9262 25.0903 30.9059 25.015 30.8666 24.9493C30.8273 24.8836 30.7705 24.8302 30.7025 24.795L20.45 19.6C20.3854 19.5661 20.3128 19.5506 20.24 19.555L20.2375 19.5575Z" fill="black"/>
</svg>
