<?xml version="1.0" encoding="UTF-8"?>
<svg id="Calque_2" data-name="Calque 2" xmlns="http://www.w3.org/2000/svg" viewBox="0 0 474.48 331.73">
  <defs>
    <style>
      .cls-1 {
        fill: #4a6587;
      }

      .cls-2 {
        fill: #afbed6;
      }

      .cls-3 {
        fill: #cddef1;
      }

      .cls-4 {
        stroke: #214bb2;
        stroke-width: 4.17px;
      }

      .cls-4, .cls-5 {
        fill: none;
        stroke-linecap: round;
        stroke-linejoin: round;
      }

      .cls-6 {
        fill: #abe8f9;
      }

      .cls-7 {
        fill: #fff;
      }

      .cls-8 {
        fill: #5595bd;
      }

      .cls-9 {
        fill: #ffb331;
      }

      .cls-10 {
        fill: #fefefe;
      }

      .cls-11 {
        fill: #fce917;
      }

      .cls-5 {
        stroke: #302928;
        stroke-width: 3.38px;
      }

      .cls-12 {
        fill: #214bb2;
      }

      .cls-13 {
        fill: #6582a5;
      }

      .cls-14 {
        fill: #fdeab1;
      }

      .cls-15 {
        fill: #418ade;
      }
    </style>
  </defs>
  <g id="logo">
    <g>
      <g id="Objet_génératif" data-name="Objet génératif">
        <g>
          <g>
            <path class="cls-6" d="M386.12,173.45c21.37,20.99,43.67,50.63,63.7,73.82l-.93.8c-10.12,3.18-22.83,3.83-32.64,7.25-1.54.54-3.1.06-2.99,2.42-5.79-5.87-29.12-26.84-31.74-31.74-1.64-3.06.34-5.67-4.19-9.71-4.43-3.96-7.43-2.77-11.72.13.12-2.14-11.9-12.45-12.8-12.64-.2-.04-3.25.7-3.33,1.46l-1.35-1.82c-.11.15-.27.28-.39.43.12-.15.27-.28.39-.43,5.51-7.43,11.05-21.02,14.39-29.97l23.16-.44c.15.15.3.3.45.45Z"/>
            <path class="cls-12" d="M36.34,238.5c17.67,4.03,37.27,1.73,54.68,7.1,17.32,5.35,32.65,15.62,47.16,26.08l-.38.75c-43.49.03-90.62,1.2-134.08.49-.69-1.68,2.61-4.45,3.39-5.75,4.03-6.79,15.28-16.64,20.76-23.64,1.63-2.08,5.29-2.85,5.66-5.71.93.28,1.87.46,2.82.68Z"/>
            <path class="cls-11" d="M154.19,172.37l-1.54,1.29c-6.3,8.92-31.73,19.42-17.71,31.69,6.84,5.98,39.23,15.55,48.83,17.1l.48-.64c.4.38.81.74,1.23,1.1.14.12.27.2.41.31,6.99,5.57,23.04,13.44,31.55,18.04l-.41.78c-6.3-.2-11.01,2.48-17.83.29-5.55-1.78-10.01-5.82-15.22-7.89-26.91-10.71-93.28-19.58-48.48-58.85,1.59-1.39,3.24-2.7,4.8-4.11l.99-2.09c.39,0,.79,0,1.18,0,2.94-.01,5.88,0,8.81,0l1.64-.32c.31,1.17.93,2.2,1.26,3.31Z"/>
            <path class="cls-11" d="M292.17,243.63c.18-.06.38-.08.56-.14-1.21,2.31-.02,1.82,1.8,2.75,21.84,11.25,37.44,19.67,62.5,17.85,1-.07,2.01.36,2.73-.65,3.54,3.24,6.78,6.87,10.22,10.22-.8.85-1.83.53-2.81.58-12.07.63-25.49-.31-37.74-.37l-.22-.47c-.37-.14-.73-.28-1.09-.44-18.87-8.15-36.6-20.14-57.33-23.32v-.77c6.85-1.59,14.74-3.17,21.37-5.25Z"/>
            <path class="cls-12" d="M455.05,253.26c5.94,6.88,12.16,13.55,17.74,20.72-13.17.9-26.48-.33-39.66.26-1.03.05-2.06-.18-3.02.36-.12-.12-.24-.24-.36-.36h0c-3.27-3.33-6.62-6.58-9.9-9.9l1.73-3.63,33.1-7.88c.12.14.25.28.37.43Z"/>
            <path class="cls-9" d="M455.05,253.26c-.12-.14-.25-.28-.37-.43l-33.1,7.88-1.73,3.63c-2.18-2.21-4.41-4.38-6.6-6.6-.1-2.37,1.46-1.89,2.99-2.42,9.81-3.42,22.52-4.08,32.64-7.25l.93-.8c1.61,1.86,3.25,3.7,4.86,5.57.12.14.25.28.37.43Z"/>
            <g>
              <path class="cls-6" d="M135.5,175.59c-44.81,39.27,21.57,48.14,48.48,58.85,5.21,2.08,9.67,6.11,15.22,7.89,6.81,2.18,11.53-.49,17.83-.29l.41-.78c.33.18.64.39,1,.51l.25.28c.08,0,.15.05.23.06.2.03.38.14.58.17,6.74,1.05,14.74,4.85,22.53,6.03,8.71,1.32,17.61.18,25.93,1.1.19.02.38,0,.56.03.25.03.51.02.76.05l.36-.33c.38-.08.75-.19,1.13-.28v.77c20.74,3.17,38.48,15.17,57.35,23.32l-.39.91c-61.63-.3-123.28-.24-184.91-.2l-.31-.47c-.15-.09-.3-.18-.44-.28-14.51-10.47-29.85-20.74-47.16-26.08-17.41-5.38-37.01-3.08-54.68-7.1-.23-2.47-7.28-1.84-5.98-3.54,16-20.94,41.36-45.32,57.84-66.13,1.83-.55,46.02-.52,47.79.2.14.06-5.29,4.83-4.39,5.32Z"/>
              <path class="cls-15" d="M101.4,180.1l3.1,1.41c1.58,5.55-20.43,19.67-9.3,27.9.82.61,3.5.93,4.51,1.69,11.55,8.73-10.72,4.64-12.12-1.41-2.77-11.99,7.91-20.9,13.81-29.59Z"/>
              <path class="cls-15" d="M112.67,180.66c.51-.1,1.15.07,1.69,0,1.21,8.5-4.99,12.37-4.23,21.7.09,1.04,2.35,6.96,2.25,7.33-.77,3.15-9.41-3.88-8.46-11.84.25-2.1,6.93-16.82,8.74-17.19Z"/>
            </g>
            <path class="cls-8" d="M365.6,216.42c-.31.21-.55.55-.86.77-.15.11-.27.27-.43.39-.46.34-.83.81-1.28,1.16l-1.26-1.2-12.3-12.3c.08-.76,3.13-1.5,3.33-1.46.9.19,12.92,10.51,12.8,12.64Z"/>
            <path class="cls-6" d="M342.74,237.25c-4.82,5.52-9,9.08-.92,15.22,2.78,2.11,5.13,1.13,7.55,2.28,4.31,2.04,7.01,5.58,10.4,8.69-.72,1.01-1.73.58-2.73.65-25.06,1.82-40.67-6.6-62.5-17.85-1.81-.93-3-.43-1.8-2.75-.18.06-.38.08-.56.14.18-.06.38-.08.56-.14,1.78-.57,3.96-.74,5.63-1.38,8.04-3.12,24.34-12.65,30.86-18.25l.52,1.1,11.18,11.18,1.82,1.12Z"/>
            <path class="cls-6" d="M156.7,180.66c5.38,13.79,16.46,30.5,27.12,40.73.15.14.29.29.44.42l-.48.64c-9.61-1.55-42-11.12-48.83-17.1.24-4.06-.53-6.06,1.69-9.75,2.02-3.36,15.61-14.1,20.07-14.94Z"/>
            <path class="cls-15" d="M156.7,180.66c-4.46.84-18.04,11.57-20.07,14.94-2.22,3.7-1.45,5.7-1.69,9.75-14.02-12.27,11.4-22.76,17.71-31.69l1.54-1.29c.84,2.8,1.44,5.55,2.51,8.29Z"/>
          </g>
          <g>
            <path class="cls-3" d="M386.12,173.45c-.15-.15-.3-.3-.45-.45l-23.16.44c-3.33,8.95-8.88,22.54-14.39,29.97-.11.15-.27.28-.39.43-1.37,1.83-3.17,3.41-4.64,5.17l-2.41-1.01c41.21-48.92,23.26-125.86-31.85-155.86C214.46.77,112.4,108.84,171.58,200.67c2.01,3.12,12.46,14.43,12.96,15.78s.31,3.81-.73,4.93c.15.14.29.29.44.42-.15-.14-.29-.28-.44-.42-10.66-10.23-21.74-26.94-27.12-40.73-1.07-2.74-1.67-5.49-2.51-8.29-.33-1.11-.95-2.14-1.26-3.31C128.49,76.94,232.28,2.12,313.63,49.32c39.78,23.08,65.84,74.95,50.71,119.89l2.27.18c8.13.74,12.68-2.53,19.05,3.61.15.15.3.3.45.45Z"/>
            <g>
              <path class="cls-1" d="M455.79,313.69c-4.68,8.73-18.26,20.14-28.86,15.11s-45.38-43.87-56.94-55.14c-3.44-3.35-6.68-6.99-10.22-10.22s-6.09-6.64-10.4-8.69c2.41-1.8,2.85-6.03,3.72-7.29.68-.99,14.44-14.75,15.5-14.94.58-.1,2.54,1.08,3.38,1.13l80.04,79.48,3.78.56Z"/>
              <path class="cls-13" d="M457.37,308.62c-.29,2.3-.46,2.99-1.58,5.07l-3.78-.56-80.04-79.48c-.84-.05-2.8-1.23-3.38-1.13-1.06.19-14.82,13.95-15.5,14.94-.87,1.26-1.31,5.49-3.72,7.29-2.42-1.15-4.77-.16-7.55-2.28-8.08-6.14-3.9-9.7.92-15.22s14.63-14.12,20.3-18.52c.45-.35.83-.82,1.28-1.16.15-.11.27-.28.43-.39-.15.11-.27.27-.43.39,2.34.62-.22,2.09.32,2.55.74.63,5.04-.4,7.89,1.13,3.16,1.69,4.89,4.94,3.1,8.17l78.07,78.07,3.66,1.13Z"/>
              <path class="cls-2" d="M413.25,257.74c2.18,2.21,4.41,4.38,6.6,6.6,3.28,3.32,6.63,6.57,9.9,9.9h0c.12.12.24.24.36.36,5.4,5.51,25.09,23.12,26.92,28.39.45,1.29.52,4.24.34,5.64l-3.66-1.13-78.07-78.07c1.79-3.24.06-6.49-3.1-8.17-2.85-1.53-7.15-.5-7.89-1.13-.54-.46,2.02-1.93-.32-2.55.15-.11.27-.28.43-.39-.15.11-.27.27-.43.39.15-.11.27-.28.43-.39.31-.22.54-.56.86-.77,4.29-2.89,7.29-4.08,11.72-.13,4.52,4.04,2.55,6.64,4.19,9.71,2.62,4.9,25.95,25.87,31.74,31.74Z"/>
            </g>
            <g>
              <path class="cls-15" d="M347.74,203.84c.12-.15.27-.28.39-.43l1.35,1.82,12.3,12.3,1.26,1.2c-5.67,4.4-15.67,13.22-20.3,18.52l-1.82-1.12-11.18-11.18-.52-1.1c-6.53,5.59-22.82,15.13-30.86,18.25-1.67.65-3.84.82-5.63,1.38-.18.06-.38.08-.56.14-6.63,2.09-14.53,3.66-21.39,5.25-.38.09-.75.19-1.13.28l-.36.33c-.26-.03-.51-.02-.76-.05-.19-.02-.38,0-.56-.03-8.32-.92-17.22.22-25.93-1.1-7.8-1.18-15.8-4.98-22.53-6.03-.2-.03-.38-.14-.58-.17-.08-.01-.15-.05-.23-.06l-.25-.28c-.36-.12-.67-.33-1-.51-8.51-4.6-24.56-12.47-31.55-18.04-.13-.11-.26-.19-.41-.31-.42-.36-.83-.72-1.23-1.1-.15-.14-.29-.28-.44-.42,1.04-1.13,1.22-3.62.73-4.93s-10.95-12.66-12.96-15.78C112.4,108.84,214.46.77,308.84,52.14c55.11,30,73.06,106.94,31.85,155.86l2.41,1.01c1.47-1.77,3.27-3.35,4.64-5.17Z"/>
              <path class="cls-7" d="M251.34,49.89c89.13-5.06,140.02,101.44,71.02,161.78-73.12,63.95-185.92-7.79-151.91-101.75,12.14-33.53,45.36-58.01,80.89-60.03Z"/>
            </g>
          </g>
        </g>
        <g>
          <path class="cls-5" d="M268.53,249.43c.25.03.51.02.76.05.5.07,1,.09,1.5.17,20.73,3.17,38.46,15.17,57.33,23.32.36.16.72.3,1.09.44.62.23,1.26.41,1.92.47"/>
          <path class="cls-5" d="M429.75,274.24c-3.27-3.33-6.62-6.58-9.9-9.9-2.18-2.21-4.41-4.38-6.6-6.6-5.79-5.87-29.12-26.84-31.74-31.74-1.64-3.06.34-5.67-4.19-9.71-4.43-3.96-7.43-2.77-11.72.13-.31.21-.55.55-.86.77-.15.11-.27.27-.43.39-.46.34-.83.81-1.28,1.16-5.67,4.4-15.67,13.22-20.3,18.52s-9,9.08-.92,15.22c2.78,2.11,5.13,1.13,7.55,2.28,4.31,2.04,7.01,5.58,10.4,8.69s6.78,6.87,10.22,10.22c11.56,11.27,45.89,49.9,56.94,55.14s24.18-6.38,28.86-15.11c1.12-2.09,1.29-2.78,1.58-5.07.18-1.39.11-4.34-.34-5.64-1.83-5.27-21.52-22.88-26.92-28.39-.12-.12-.24-.24-.36-.36h0Z"/>
          <path class="cls-5" d="M151.29,169.39c-2.94,0-5.88-.01-8.81,0-.39,0-.79,0-1.18,0-6.27.02-46.95-.75-49.19.68-19.92,22.24-39.44,44.93-58.98,67.44-10.42,12.01-21,23.88-31.43,35.87,2.23,1.61,6.7.77,9.43.81,43.47.71,87.1-.49,130.58-.52.38,0,.75,0,1.13,0,61.63-.04,123.28-.1,184.91.2.57,0,1.13,0,1.7,0,12.24.06,25.67,1,37.74.37"/>
          <path class="cls-5" d="M366.62,169.39c8.13.74,12.68-2.53,19.05,3.61.15.15.3.3.45.45,21.37,20.99,43.67,50.63,63.7,73.82,1.61,1.86,3.25,3.7,4.86,5.57.12.14.25.28.37.43,5.94,6.88,12.16,13.55,17.74,20.72-13.17.9-26.48-.33-39.66.26"/>
          <path class="cls-5" d="M294.53,246.24c21.84,11.25,37.44,19.67,62.5,17.85"/>
          <path class="cls-5" d="M298.36,242.1c8.04-3.12,24.34-12.65,30.86-18.25,4.7-4.03,9.87-10.04,13.87-14.84,1.47-1.77,3.27-3.35,4.64-5.17.12-.15.27-.28.39-.43,5.51-7.43,11.05-21.02,14.39-29.97.53-1.43,1.35-2.79,1.83-4.23,15.13-44.94-10.94-96.81-50.71-119.89-81.35-47.2-185.14,27.61-160.7,119.74.31,1.17.93,2.2,1.26,3.31.84,2.8,1.44,5.55,2.51,8.29,5.38,13.79,16.46,30.5,27.12,40.73.15.14.29.29.44.42.4.38.81.74,1.23,1.1l.41.31c6.99,5.57,23.04,13.44,31.55,18.04.33.18.64.39,1,.51l1.06.51c6.74,1.05,14.74,4.85,22.53,6.03,8.71,1.32,17.61.18,25.93,1.1.57-.04,1.13-.13,1.69-.25.38-.08.75-.19,1.13-.28,6.86-1.59,14.76-3.17,21.39-5.25.18-.06.38-.08.56-.14,1.78-.57,3.96-.74,5.63-1.38Z"/>
          <line class="cls-5" x1="329.74" y1="224.96" x2="340.92" y2="236.14"/>
          <path class="cls-5" d="M152.65,173.67c-6.3,8.92-31.73,19.42-17.71,31.69,6.84,5.98,39.23,15.55,48.83,17.1.9.15,1.72.52,2.46,1.05"/>
          <line class="cls-5" x1="349.47" y1="205.23" x2="361.78" y2="217.54"/>
          <path class="cls-5" d="M35.21,238.42c.76.13,1.48.42,2.21.64.93.28,1.87.46,2.82.68,17.67,4.03,37.27,1.73,54.68,7.1,17.32,5.35,32.65,15.62,47.16,26.08.14.1.29.19.44.28l.87.46"/>
          <path class="cls-5" d="M140.31,171.48c-1.56,1.41-3.22,2.72-4.8,4.11-44.81,39.27,21.57,48.14,48.48,58.85,5.21,2.08,9.67,6.11,15.22,7.89,6.81,2.18,11.53-.49,17.83-.29.56.02,1.12-.05,1.67,0,.08,0,.15.05.23.06"/>
          <path class="cls-5" d="M448.89,248.06c-10.12,3.18-22.83,3.83-32.64,7.25"/>
        </g>
      </g>
      <g>
        <g>
          <path class="cls-9" d="M262.48,83.3c-.09.13-1.41-.42-1.45,1.69-.09,4.63,7.73,11.75,4.84,3.15.73-1.29,1.18.1,1.45.73.53,1.21,5.33,9.71,5.81,10.16,1.07,1.02,1.63.75,3,.73.43,1.99,1.22,4.86,1.36,6.78,1.37,19.88-16.49,31.38-13.55,52.28l-.5.06c-2.48-.04-5.1.57-7.6.64l-.36-1.22c-1.42-7.44-1.61-14.06-4.42-21.26-5.55-14.21-11.49-14.49-9.68-31.95,2.37.42,2.13-.37,3.19-1.69,3.42-4.23,10.35-21.37,12.58-23.23,2.94-2.45,6.59,1.38,5.32,3.15Z"/>
          <path class="cls-9" d="M277.64,166.87c-.19.87-.95,4.8-1.16,5.03-.16.17-3.91.31-4.72.38l.08,1.59c1.75,4.72,2.95,10.66,8.55,12.34,9.07,2.71,3.96-12.62,13.07-7.36,10.14,5.86-2.12,24.85-15.01,15.01-6.29-4.8-9.55-12.39-10.31-20.03l-.21-1.46c-1.63.09-3.28-.04-4.91,0l.23,1.47c1.12,8.61,2.66,16.17,7.35,23.7l-11.1,15.02c-.92.16-11.81-13.53-11.96-14.46-.1-.62,4.58-8.59,5.44-11.21,1.45-4.41,1.58-8.98,1.81-13.55v-.97c-1.4-.04-2.83.07-4.25,0l-.11.97c.62,10.16-11.16,27.57-22.33,22.46-11.56-5.3-5.77-21.2,1.94-17.52,2.71,1.29,1.08,10.5,7.74,8.33,5.62-1.83,7.09-7.99,9.11-12.69l-.19-1.54c.18.02.37-.02.55,0-.18-.02-.37.02-.55,0-1.27-.14-3.25.14-4.26-.73-.81-.7-1.13-3.3-1.48-4.5l1.66-.09h33.4l1.6-.17Z"/>
          <path class="cls-14" d="M276.13,99.76c-1.37.02-1.93.3-3-.73-.48-.46-5.28-8.96-5.81-10.16-.27-.62-.73-2.02-1.45-.73-.44-1.32-2.63-3.51-3.39-4.84,1.26-1.77-2.38-5.6-5.32-3.15-2.24,1.87-9.17,19-12.58,23.23-1.07,1.32-.82,2.11-3.19,1.69,1.43-13.8,9.7-29.01,18.14-39.86,7.44,10.38,13.9,21.92,16.61,34.54Z"/>
          <path class="cls-14" d="M321.05,129.77c-.07-.16-.12-.33-.19-.48l-11.67-4.84c-8.03-1.18-20.65,2.07-27.59,6.29-3.22,1.96-5.32,5.8-8.76,6.29,8.92-20.31,37.06-30.45,48.02-7.74.08.16.12.33.19.48Z"/>
          <path class="cls-9" d="M267.66,159.15c1.82.09,4.05-.08,5.71.15,6.69.9,5.6,1.53,4.26,7.57l-1.6.17h-33.4l-1.66.09c-1.81-6.1-2.16-7.38,4.75-7.84,1.86-.12,3.78.38,5.45.3,1.53-.07,3.12-.04,4.67-.08,2.5-.07,5.12-.68,7.6-.64l.5-.06.02.06c1.25.01,2.47.22,3.71.28Z"/>
          <path class="cls-14" d="M244.47,134.61c-5.17-.92-10.51-7.28-15.15-9.2-7.67-3.17-17.77-3.45-25.17.48-1.71.91-4.02,4.94-5.95,2.9-.08.15-.12.33-.19.48.08-.16.11-.33.19-.48,11.01-21.01,36.82-12.73,46.27,5.81Z"/>
          <path class="cls-10" d="M262.48,83.3c.75,1.33,2.95,3.52,3.39,4.84,2.89,8.6-4.93,1.48-4.84-3.15.04-2.11,1.36-1.56,1.45-1.69Z"/>
          <g>
            <path class="cls-9" d="M244.47,134.61c3.83,7.5,5.14,15.53,6.63,23.69l.07,1.3c-1.66.08-3.58-.42-5.45-.3l-.09-1.46c-2.47-28.52-45.1-25.48-27.34,4.79-17.53-.37-28.06-17.58-20.29-33.35.08-.16.11-.33.19-.48,1.93,2.03,4.24-1.99,5.95-2.9,7.4-3.93,17.5-3.65,25.17-.48,4.64,1.91,9.99,8.28,15.15,9.2Z"/>
            <path class="cls-9" d="M225.45,125.41l4.6,2.66c-1.14,1.53-6.35-1.71-4.6-2.66Z"/>
          </g>
          <g>
            <path class="cls-9" d="M321.05,129.77c7.18,15.92-4.01,32.89-21.22,32.95,19.44-29.96-24.92-33.71-26.75-4.88l.29,1.45c-1.66-.22-3.89-.05-5.71-.15l.15-1.31c.89-7.03,2.16-14.26,5.03-20.81,3.44-.49,5.55-4.34,8.76-6.29,6.94-4.22,19.56-7.48,27.59-6.29l11.67,4.84c.08.16.12.33.19.48Z"/>
            <path class="cls-9" d="M296.12,125.9c.71-.16,4.46-.22,4.6.73-2.1,3.61-10.51.59-4.6-.73Z"/>
          </g>
        </g>
        <path class="cls-4" d="M254.61,173.88c-.23,4.46-.35,8.92-1.77,13.23-.84,2.56-5.41,10.35-5.31,10.95.14.9,10.77,14.27,11.68,14.12l10.84-14.67c-4.58-7.35-6.08-14.73-7.18-23.14"/>
        <path class="cls-4" d="M267.64,174.36c.74,7.46,3.93,14.87,10.06,19.56,12.58,9.61,24.56-8.93,14.65-14.65-8.9-5.14-3.9,9.83-12.76,7.18-5.47-1.64-6.65-7.43-8.35-12.05"/>
        <path class="cls-4" d="M275.77,172.47c.2-.22.94-4.06,1.13-4.91,1.31-5.9,2.37-6.52-4.16-7.39-1.62-.22-3.8-.05-5.58-.14-1.21-.06-2.41-.27-3.62-.28-.17,0-.34,0-.5,0-2.42-.04-4.98.55-7.42.63-1.51.04-3.07.01-4.56.08-1.63.07-3.5-.41-5.32-.3-6.75.44-6.41,1.69-4.64,7.65.35,1.17.65,3.71,1.45,4.4.99.85,2.92.58,4.16.71.18.02.36-.02.54,0,1.05.1,2.15-.05,3.22,0,1.38.06,2.77-.04,4.16,0,2.65.08,5.37.07,8.02,0,1.59-.04,3.21.08,4.8,0,1.24-.07,2.48.03,3.72-.08.78-.07,4.45-.21,4.61-.37Z"/>
        <line class="cls-4" x1="275.34" y1="167.73" x2="242.73" y2="167.73"/>
        <path class="cls-4" d="M267.31,158.75c.87-6.86,2.11-13.93,4.92-20.32,8.71-19.83,36.19-29.74,46.89-7.56.07.15.12.32.19.47,7.01,15.55-3.92,32.12-20.72,32.18,18.98-29.26-24.33-32.92-26.12-4.77"/>
        <path class="cls-4" d="M246.9,174.43c-1.97,4.59-3.41,10.6-8.89,12.4-6.5,2.12-4.92-6.87-7.56-8.13-7.52-3.59-13.18,11.94-1.89,17.11s22.41-12,21.81-21.93"/>
        <path class="cls-4" d="M251,159.2c-1.46-7.96-2.73-15.81-6.47-23.13-9.23-18.1-34.44-26.19-45.19-5.67-.08.15-.11.32-.19.47-7.59,15.39,2.7,32.2,19.81,32.56-17.35-29.56,24.28-32.53,26.69-4.68"/>
        <path class="cls-4" d="M255.27,159.19c-1.38-7.26-1.57-13.73-4.32-20.76-5.42-13.87-11.22-14.15-9.45-31.2,1.4-13.48,9.47-28.33,17.72-38.93,7.27,10.14,13.58,21.4,16.22,33.73.42,1.94,1.19,4.75,1.32,6.62,1.34,19.42-16.1,30.64-13.23,51.05"/>
      </g>
      <g>
        <path d="M130.67,128.33c2.41,2.09,4.48,5.85,4.44,11.17.03,6.64-12.81,5.96-12.81,5.96-13.17-.4-21.6-2.41-25.08-3.49,0,0-3.33-1.07-3.45-2.69,0,0-.23-2.41,4.61-2.09,3.07.28,18.22,2.19,28.53,2.78,0,0,5.68.52,6.06-.61.37-.9-1.62-5.89-4.03-9.14,0,0-1.36-1.63-.78-2.29.74-.72,1.72-.27,2.52.4Z"/>
        <path d="M128.7,100.52c.32-.01.69.07,1.1.39,1.47.87,7.3,7.08,6.3,11.03-.45,1.72-2.78,2.32-5.79,2.38,2.06,1.78,4.33,4.79,2.98,8.51-1.59,4.46-8.37,6-13.01,1.54-1.89-1.82-3.56-4.7-4.2-7.99,0,0-.72-3.62.98-5.3-.57-.28-.96-.68-1.12-1.03,0,0-.26-.61-.03-1.34.53-1.38,1.65-3.27,9.87-.48l6.65,2.05s1.02.38.88-.44c-.16-.74-.56-2.17-5.11-8.5-.24-.37.03-.86.49-.84ZM119.63,112.36c-1.05-.23-2.84,1.12,3.47,6.57,6.78,5.86,8.61,2.79,8.61,2.79,1.39-3.17-6.02-7.19-8.01-8.17-1.51-.32-2.9-.78-4.08-1.19Z"/>
        <path d="M151.61,82.21c-6.14,10.86-21.92-.18-21.92-.18,0,0-18.61-12.46-13.17-21.77,0,0,2.87-5.54,12.73,1.89,0,0,2.43,1.81,1.27,3.55-1.19,1.63-2.83,0-3.82-.75-.77-.52-6.48-4.81-7.94-3.16,0,0-2.06,5.38,14.02,15.26,0,0,13.52,9.41,16.78,4.26,3.26-5.15-4.77-10.03-8.39-10.67,0,0-.48-.09-1.1-.09-.76.1-1.74.26-2.72-.03-1.45-.56-1.85-1.58-1.57-2.39,1.81-5.7,21.44,4.15,15.84,14.08Z"/>
        <path d="M162.66,48.49c.78,1.47,3.1,9.69.34,12.7-1.81,1.9-4.54,1.91-10.28-4.07,0,0-2.54-2.96-2.96-1.39-.32,1.45,7.06,12.04,7.5,12.71,1.35,1.75-.28,2.59-.28,2.59-2.9,1.99-12.78-7.9-12.78-7.9,0,0-17.8-17.7-15.06-21.65,3.01-4.51,12.55,3.77,17.88,17.37,1.43,1.41,2.32,2.27,2.32,2.27.41.35.77.76,1.18,1.1-2.64-4.15-4.9-8.99-2.76-11.63,2.73-3.34,7.86,2.52,7.86,2.52l4.89,4.95s.77.76.99.03c.26-.79.53-2.17-.55-9.95-.04-.43.43-.75.83-.51.28.14.58.39.89.85ZM142.44,54.37c-3.98-7.81-9.26-12.18-9.75-11.49-.59.81,4.92,6.59,9.75,11.49Z"/>
        <path d="M180.35,32.84c.26.19.5.48.62.99.62,1.59,1.35,10.08-1.89,12.57-1.41,1.07-3.62.1-6.02-1.71.52,2.67.44,6.44-2.93,8.53-4.01,2.52-10.29-.47-11.17-6.84-.36-2.6.11-5.9,1.65-8.87,0,0,1.67-3.29,4.05-3.56-.27-.57-.33-1.12-.24-1.5,0,0,.17-.64.81-1.07,1.27-.76,3.32-1.55,8.05,5.73l3.95,5.73s.57.93.97.2c.34-.68.9-2.05,1.25-9.84.04-.43.55-.66.91-.35ZM165.89,36.52c-.69-.83-2.93-.88-1.34,7.31,1.69,8.8,5.04,7.53,5.04,7.53,3.05-1.63-.27-9.38-1.23-11.38-.98-1.19-1.8-2.41-2.47-3.46Z"/>
        <path d="M194.67,25.4c.46.17.64.6.28.91-1.8,1.18-3.47,2.74-4.71,4.56,0,0-.5.66-1.08,1.64.73.46,1.37,1.06,1.88,1.92,2.73,4.2,1.11,8.96-3.08,10.51,0,0-2.91,1.14-4.21-1.59,0,0-1.52-2.95.48-7.67-1.19-.18-2.5-.11-3.91-.06-3.38.07-4.58-2.36-4.58-2.36-1.46-2.26-2.26-5.65,2.06-9.08,0,0,4.66-3.46,6.33.48,0,0,.34,1.15-.56,1.6-.9.45-2.71-1.06-3.77-.42-1.36.73-.48,3.81,1.13,4.54.97.4,3.41.27,5.86,1.04.18-.29.37-.58.66-.85,1.54-1.92,3.54-4.4,6.05-5.02.54-.15.88-.18,1.16-.16ZM187,36.81c-.64,1.47-1,2.95-1.01,4.57,0,0-.03,2.18,1.25,1.76,2.45-.86.86-4.67.86-4.67-.33-.7-.69-1.29-1.1-1.67Z"/>
        <path d="M208.31,19.55c.44.22.57.67.18.94-1.92.98-3.75,2.34-5.17,4.03,0,0-.57.6-1.25,1.52.67.54,1.24,1.21,1.67,2.11,2.25,4.47.13,9.03-4.2,10.12,0,0-3.02.81-4.01-2.04,0,0-1.19-3.1,1.31-7.58-1.16-.31-2.47-.38-3.88-.48-3.37-.3-4.3-2.84-4.3-2.84-1.21-2.41-1.63-5.87,3.03-8.8,0,0,5.01-2.93,6.24,1.17,0,0,.21,1.18-.73,1.53-.94.35-2.58-1.35-3.7-.82-1.43.58-.89,3.73.63,4.63.92.51,3.36.64,5.71,1.67.21-.27.43-.54.74-.77,1.74-1.74,4-3.99,6.56-4.33.55-.09.9-.08,1.17-.04ZM199.44,30.06c-.8,1.39-1.32,2.82-1.5,4.44,0,0-.27,2.16,1.05,1.89,2.53-.59,1.36-4.54,1.36-4.54-.26-.73-.55-1.36-.92-1.78Z"/>
        <path d="M222.88,14.66c.07.22.2.58.22,1.14.06,1.61-1.64,9.82-7.69,12.11,0,0-7.1,2.56-10.03-4.41-2.93-7.22.45-14.29,5.41-14.75,0,0,4.72-.22,5.1,3.07.43,2.94-1.33,8.09-5.32,9.28,1.75,4.94,3.96,4.51,3.96,4.51,2.21-.91,4.39-3.84,7.28-10.92.17-.46.75-.42,1.05-.03ZM209.89,18.57c2.4-1.3,3.27-4.76,3.14-6.1-.18-1.48-1.83-1.57-1.83-1.57-.73-.24-1.43,1.78-1.43,1.78-.5,2.36-.15,4.6.12,5.89Z"/>
        <path d="M261.63,9.79c.1.3.14.68-.05,1.16-.39,1.66-4.61,9.07-8.68,9.27-1.77.08-3.03-1.97-3.98-4.83-1.09,2.49-3.3,5.55-7.25,5.36-4.73-.2-8.21-6.23-5.31-11.97,1.18-2.35,3.44-4.79,6.39-6.36,0,0,3.25-1.76,5.35-.63.1-.63.36-1.11.65-1.37,0,0,.5-.43,1.28-.42,1.48.1,3.61.61,3.37,9.29v6.96s-.06,1.09.68.71c.66-.37,1.91-1.17,6.61-7.39.28-.33.83-.23.95.23ZM247.65,4.62c-.1-1.07-1.91-2.38-5.25,5.26-3.6,8.2-.12,9.05-.12,9.05,3.44.39,5.1-7.87,5.44-10.07-.14-1.53-.11-3-.07-4.25Z"/>
        <path d="M281.12,11.27c.06.31-.04.69-.22,1.22-.69,1.51-5.88,9.26-9.93,8.66-1.68-.24-2.85-1.61-3.22-4.79-1.03,1.95-2.49,3.42-4.48,3.16-5.89-.92-4.5-9.87-4.5-9.87,0,0,.77-7.52,3.16-7.47,2.31-.03,1.97,3.57,1.97,3.57-.07,1.38-.14,2.69-.3,4.38,0,0-.78,6.13.99,6.14,1.77.01,3.22-5.62,3.62-7.45.41-1.91,1.45-5.63,3.37-5.45,2.3.2,1.45,6.32,1.45,6.32l-1.02,7.74s-.21,1.07.58.8c.95-.41,2.89-2.16,7.63-7.32.32-.29.78-.11.91.36Z"/>
        <path d="M288.83,10.79c-.76,1.36-1.5,2.1-1.94,2.42.75,1.21,1.64,1.97,1.43,2.33-.31.5-.93.48-.93.48-.54,0-1.32-.52-2.11-1.42-.69.44-1.31.89-1.85,1.35.47,2.49,1.33,5.43,2.7,6.11,0,0,.66.26.54,1.02-.14.91-1.45.79-1.45.79-2.58.06-4.21-1.99-5.32-4.34-1.68,2.23-2.27,4.01-2.86,4.31-1.07.38-1.53-.71-1.53-.71-.59-2.2,1.2-4.64,3.25-6.82-.54-2.03-.73-3.78-.73-3.78,0,0-1.17-7.98,1.24-8.38,2.25-.43,2.83,3.33,2.83,3.33.31,1.53.48,2.88.75,4.64,0,0,.04.24.06.63.52-.31.87-.56,1.04-.69-.12-.25-.16-.49-.19-.81-.67-4.16,1.43-7.65,4.15-7.06,2.7.66,2.23,4.17.91,6.61ZM287.3,5.64c-.95-.38-1.92,2.27-1.63,4.42.04.24.07.56.11.8.38-.41.93-.95,1.2-1.68.63-1.54,1.06-3.26.32-3.53Z"/>
        <path d="M323.75,23.76c-.08.22-.22.58-.55,1.03-.97,1.28-7.47,6.58-13.61,4.53,0,0-7.12-2.5-4.99-9.75,2.29-7.45,9.38-10.8,13.52-8.02,0,0,3.8,2.82,2.02,5.6-1.53,2.55-6.14,5.43-9.98,3.83-1.76,4.93.22,6,.22,6,2.29.69,5.83-.21,12.54-3.86.42-.25.85.15.83.64ZM311.21,18.58c2.69.51,5.54-1.63,6.29-2.75.8-1.26-.43-2.38-.43-2.38-.42-.65-2.23.48-2.23.48-1.88,1.52-3.02,3.47-3.63,4.65ZM318.35,8.51c-.56-.04-1.12-.09-1.55-.25-.07-.03-.22-.08-.26-.18-.07-.03-.14-.05-.19-.15-.12-.13-.23-.25-.25-.42,0,0-.02-.17.06-.39.03-.07.08-.22.18-.26.05-.14.15-.19.35-.28.1-.04.37-.11.71-.15.27-.06.71-.15,1.08-.25.86-.09,1.67-.28,2.18-.34,0,0,.17-.02.32.04.22.08.43.16.57.46,0,0,.27.59-.58,1.34,0,0-.48.4-1.02.52-.47.15-1.08.25-1.59.31Z"/>
        <path d="M340.8,33.23c-.15.27-.39.58-.82.87-.98.7-5.43,2.34-9.01,2.18-4.2,2.47-8.08.75-9.05-.2,0,0-1.42-1.1-.69-2.64.83-1.56,3.85-3.62,7.48-1.6,3.6-3.32,6.6-8.78,4.43-9.94-2.95-1.66-7.43,3.63-8.11,4.4-3.96,6.61-9.7,16.56-11.62,21.47,0,0-.62,1.33-1.47.96-.89-.3-4.16-1.52,1-12.03,5.1-10.55,11.04-17.59,11.96-18.67,0,0,1.88-2.22,3.34-1.36,0,0,2.22.75.39,3.7-.04.07-.11.2-.18.34,1.82-.95,4.11-1.65,6.18-.63,3.77,1.92,5.12,7.09-.42,13.39,1.42-.2,3.32-.5,5.99-1.08.48-.09.75.4.6.84ZM326.67,33.55c-2.09-.5-3.84.49-3.54.91.36.63,1.9-.12,1.9-.12.52-.16,1.11-.45,1.64-.78Z"/>
        <path d="M350.18,41.76c-1.06,1.23-7.58,7.28-11.46,5.3-8.32-4.36.14-14.22.14-14.22,0,0,5.07-6.79,7.07-5.75,1.64.88,2,1.98-.11,5.1-.71,1.01-1.86,2.37-3.07,3.96,0,0-5.06,6.23-3.48,8.01,1.99,2.25,10.62-4.1,10.62-4.1.41-.18.85.13.77.64,0,.28-.17.64-.48,1.08ZM346.87,25.2c.27-.38.97-.44,1.6,0,.63.44.87,1.18.6,1.55-.31.44-1.04.4-1.67-.04-.63-.44-.85-1.07-.54-1.51Z"/>
        <path d="M368.08,56.66c-.1.33-.35.83-1.01.64-1.38-.43-3.98-1.36-10.19-1.43-6.49,6.37-17.06,14.44-22.1,7.07,0,0-3.52-4.81,4.15-7.69,0,0,5.11-1.68,12.78-1.83.42-.45.83-.91,1.2-1.3-2.16.42-4.57.19-6.29-1.92-2.69-3.21-.5-9.46,5.2-11.22,2.37-.75,5.36-.82,8.29.09,0,0,5.52,1.73,3.06,5.54,1.44,1.96.03,4.63-4.25,9.17,2.52.33,5.21.82,8.02,1.52,0,0,.66.19.95.67.11.1.24.43.19.7ZM349.15,56.08c-14.83,1.1-13.11,5.72-13.11,5.72,2.1,3.4,10.65-3.38,10.65-3.38.79-.74,1.63-1.54,2.46-2.34ZM354.69,43.7c-7.89,2.89-6.46,5.77-6.46,5.77,1.39,1.9,5.71-.18,8.43-1.76.21-.23.31-.34.31-.34,0,0,2.29-2.49,4.23-3.23.79-.63,1.12-3.26-6.5-.44Z"/>
        <path d="M373.54,62.85s-1.2.48-1.69-.61c-.26-.68.67-1.25.67-1.25,0,0,3.06-1.61,1.28-2.44-1.35-.68-13.29,4.8-14.03,5.11-1.96,1.01-2.5-.74-2.5-.74-1.43-3.21,9.54-10.59,9.54-10.59,0,0,4.31-3.13,5.88-1.33,1.52,1.74-1.32,3.86-1.32,3.86-2.68,2.19-3.46,2.83-3.46,2.83l-.06.05c4.27-1.71,8.86-2.67,10.56.02,1.98,3.15-4.89,5.09-4.89,5.09Z"/>
        <path d="M387.55,87.74c-.23.22-.56.42-1.07.45-1.67.36-10.17-.26-12.11-3.85-.83-1.56.47-3.59,2.64-5.67-2.72.09-6.43-.59-7.96-4.24-1.86-4.36,2.09-10.09,8.52-9.95,2.63.06,5.8,1.04,8.5,3.03,0,0,2.98,2.17,2.87,4.56.61-.18,1.16-.15,1.52,0,0,0,.61.27.93.97.54,1.38,1,3.52-6.93,7.04l-6.28,2.99s-1.01.42-.35.92c.62.44,1.88,1.21,9.51,2.79.42.11.56.65.2.95ZM386.2,72.89c.93-.55,1.33-2.75-7.01-2.48-8.95.28-8.23,3.78-8.23,3.78,1.12,3.27,9.3,1.21,11.43.58,1.33-.78,2.66-1.39,3.8-1.89Z"/>
        <path d="M393.92,106.42c-.29.11-.68.17-1.19.12-1.2-.12-5.63-1.82-8.21-4.3-4.79-.9-6.58-4.76-6.68-6.12,0,0-.34-1.77,1.22-2.44,1.66-.63,5.28-.19,6.68,3.73,4.89-.12,10.75-2.26,9.88-4.56-1.13-3.2-7.98-2.17-9-2.03-7.34,2.37-18.21,6.07-22.89,8.5,0,0-1.34.59-1.74-.25-.47-.81-2.13-3.89,8.68-8.39,10.78-4.57,19.89-5.96,21.3-6.17,0,0,2.88-.43,3.41,1.18,0,0,1.18,2.02-2.15,3.03-.07.03-.22.08-.36.14,1.99.48,4.18,1.47,5.07,3.6,1.57,3.93-.82,8.71-9.14,9.8,1.2.78,2.83,1.81,5.22,3.13.42.25.3.79-.11,1.03ZM383.08,97.34c-1.24-1.75-3.21-2.16-3.26-1.65-.14.71,1.51,1.16,1.51,1.16.5.22,1.14.39,1.75.49Z"/>
        <path d="M397.05,127.77c-1.64-.28-9.57-3.44-10.28-7.46-.4-2.59,1.25-4.76,9.48-5.68,0,0,3.89-.21,2.91-1.5-.95-1.13-13.85-1.73-14.65-1.79-2.21,0-1.89-1.8-1.89-1.8.19-3.51,14.05-5.33,14.05-5.33,0,0,24.88-3.34,26.35,1.22,1.74,5.14-10.63,7.66-24.67,3.61-1.99.27-3.21.46-3.21.46-.53.11-1.07.15-1.6.27,4.9.43,10.11,1.59,10.91,4.88.99,4.2-6.78,4.7-6.78,4.7l-6.9.87s-1.07.15-.62.77c.46.69,1.4,1.74,8.23,5.62.37.24.33.8-.1.97-.28.14-.66.22-1.22.19ZM404.69,108.15c8.62,1.6,15.3.07,15.05-.74-.29-.96-8.22-.11-15.05.74Z"/>
        <path d="M399.31,144.2c-.23.02-.61.06-1.16-.05-1.58-.32-9.18-3.87-10-10.28,0,0-.85-7.5,6.61-8.74,7.7-1.18,13.8,3.74,13.1,8.68,0,0-.88,4.65-4.17,4.25-2.96-.27-7.56-3.16-7.8-7.32-5.21.56-5.31,2.81-5.31,2.81.37,2.36,2.72,5.16,8.94,9.61.41.27.23.83-.21,1.03ZM398.52,130.67c.71,2.64,3.88,4.28,5.21,4.47,1.49.17,1.96-1.42,1.96-1.42.4-.66-1.4-1.8-1.4-1.8-2.18-1.03-4.44-1.21-5.76-1.24Z"/>
      </g>
    </g>
  </g>
</svg>